<svg xmlns="http://www.w3.org/2000/svg" width="200pt" height="200pt" viewBox="140 20 200 200" version="1.1" xmlns:xlink="http://www.w3.org/1999/xlink">
  <g id="surface2" transform="matrix(1,0,0,1,0,0)">
    <path style="stroke:none;fill-rule:evenodd;fill:rgb(0.000000%,67.450980%,86.666667%);fill-opacity:1" d="M 251.199219 78.101562 C 252.398438 78.101562 253.648438 78.398438 254.949219 79.000000 C 256.683594 79.832031 257.964844 81.167969 258.800781 83.000000 L 260.449219 86.699219 C 260.949219 87.800781 261.714844 88.832031 262.750000 89.800781 C 263.750000 90.765625 264.933594 91.582031 266.300781 92.250000 C 268.035156 93.082031 269.734375 93.500000 271.398438 93.500000 C 272.300781 93.500000 273.183594 93.382812 274.050781 93.148438 L 278.050781 92.148438 C 278.648438 91.984375 279.265625 91.898438 279.898438 91.898438 C 281.167969 91.898438 282.500000 92.234375 283.898438 92.898438 C 285.964844 93.867188 287.464844 95.250000 288.398438 97.050781 L 290.500000 101.000000 C 291.535156 102.867188 291.734375 104.750000 291.101562 106.648438 C 290.433594 108.582031 289.148438 109.832031 287.250000 110.398438 L 283.050781 111.699219 C 280.417969 112.500000 278.617188 114.214844 277.648438 116.851562 C 276.515625 119.785156 276.617188 122.750000 277.949219 125.750000 L 280.199219 130.750000 C 281.199219 132.984375 281.417969 135.367188 280.851562 137.898438 C 279.851562 140.066406 278.285156 141.765625 276.148438 143.000000 L 271.250000 144.898438 C 270.148438 145.167969 269.082031 145.300781 268.050781 145.300781 C 266.550781 145.300781 265.050781 145.000000 263.550781 144.398438 C 261.148438 142.867188 259.500000 140.882812 258.601562 138.449219 L 256.601562 133.050781 C 255.632812 130.382812 255.617188 128.015625 256.550781 125.949219 C 257.617188 123.617188 259.367188 122.082031 261.800781 121.351562 L 266.500000 119.851562 C 269.367188 118.949219 271.332031 117.167969 272.398438 114.500000 C 273.398438 111.898438 273.265625 109.183594 272.000000 106.351562 L 270.050781 102.101562 C 268.816406 99.398438 266.867188 97.417969 264.199219 96.148438 C 262.433594 95.285156 260.683594 94.851562 258.949219 94.851562 C 258.050781 94.882812 257.132812 95.015625 256.199219 95.250000 L 251.750000 96.351562 C 250.917969 96.550781 250.101562 96.648438 249.300781 96.648438 C 247.898438 96.648438 246.500000 96.300781 245.101562 95.601562 C 243.199219 94.699219 241.867188 93.214844 241.101562 91.148438 L 239.648438 87.250000 C 238.949219 85.316406 239.066406 83.617188 240.000000 82.148438 C 240.933594 80.683594 242.265625 79.785156 244.000000 79.449219 C 244.300781 79.382812 244.582031 79.332031 244.851562 79.300781 L 249.148438 78.449219 C 249.449219 78.351562 249.699219 78.285156 249.898438 78.250000 C 250.332031 78.148438 250.765625 78.101562 251.199219 78.101562 "/>
    <path style="stroke:none;fill-rule:evenodd;fill:rgb(0.000000%,25.490196%,40.000000%);fill-opacity:1" d="M 229.250000 83.148438 C 230.515625 83.148438 231.800781 83.464844 233.101562 84.101562 C 234.933594 84.964844 236.199219 86.382812 236.898438 88.351562 L 238.300781 92.300781 C 239.300781 94.964844 241.148438 96.984375 243.851562 98.351562 C 245.582031 99.183594 247.351562 99.601562 249.148438 99.601562 C 250.214844 99.632812 251.316406 99.500000 252.449219 99.199219 L 256.898438 98.050781 C 257.601562 97.851562 258.300781 97.750000 259.000000 97.750000 C 260.367188 97.785156 261.750000 98.132812 263.148438 98.800781 C 265.316406 99.832031 266.832031 101.316406 267.699219 103.250000 L 269.601562 107.550781 C 270.535156 109.550781 270.566406 111.582031 269.699219 113.648438 C 268.800781 115.750000 267.285156 117.132812 265.148438 117.800781 L 260.449219 119.250000 C 257.285156 120.183594 255.035156 122.101562 253.699219 125.000000 C 253.000000 126.500000 252.632812 128.035156 252.601562 129.601562 C 252.566406 131.167969 252.867188 132.851562 253.500000 134.648438 L 255.449219 140.101562 C 256.316406 142.535156 256.316406 145.148438 255.449219 147.949219 C 253.816406 150.550781 251.816406 152.500000 249.449219 153.800781 L 243.851562 155.949219 C 242.785156 156.214844 241.714844 156.351562 240.648438 156.351562 C 238.949219 156.351562 237.300781 156.015625 235.699219 155.351562 C 233.035156 153.984375 231.316406 151.867188 230.550781 149.000000 L 228.949219 143.050781 C 228.117188 140.015625 228.449219 137.382812 229.949219 135.148438 C 231.382812 132.550781 233.367188 130.867188 235.898438 130.101562 L 241.199219 128.398438 C 244.667969 127.300781 247.101562 125.300781 248.500000 122.398438 C 249.234375 120.898438 249.667969 119.382812 249.800781 117.851562 C 249.898438 116.285156 249.699219 114.800781 249.199219 113.398438 L 247.500000 108.851562 C 246.500000 106.117188 244.484375 104.000000 241.449219 102.500000 C 239.683594 101.632812 237.867188 101.199219 236.000000 101.199219 C 234.867188 101.199219 233.699219 101.351562 232.500000 101.648438 L 227.500000 102.898438 C 226.699219 103.101562 225.898438 103.199219 225.101562 103.199219 C 223.601562 103.199219 222.101562 102.832031 220.601562 102.101562 C 218.433594 101.234375 217.050781 99.667969 216.449219 97.398438 L 215.250000 93.148438 C 214.683594 90.984375 215.082031 89.148438 216.449219 87.648438 C 217.683594 86.015625 219.183594 85.015625 220.949219 84.648438 C 221.250000 84.617188 221.535156 84.582031 221.800781 84.550781 L 226.601562 83.550781 C 226.933594 83.449219 227.250000 83.367188 227.550781 83.300781 C 228.117188 83.199219 228.683594 83.148438 229.250000 83.148438 "/>
    <path style="stroke:none;fill-rule:evenodd;fill:rgb(58.823529%,73.725490%,20.000000%);fill-opacity:1" d="M 222.449219 65.101562 C 223.785156 65.101562 225.250000 65.351562 226.851562 65.851562 C 228.714844 67.082031 229.882812 68.398438 230.351562 69.800781 L 231.601562 73.250000 C 232.167969 74.816406 232.000000 76.417969 231.101562 78.050781 C 229.699219 79.683594 227.964844 80.699219 225.898438 81.101562 L 221.250000 82.050781 C 218.117188 82.683594 215.699219 84.082031 214.000000 86.250000 C 212.265625 88.449219 211.765625 90.933594 212.500000 93.699219 L 213.648438 98.000000 C 214.351562 100.699219 216.117188 102.765625 218.949219 104.199219 C 220.816406 105.101562 222.917969 105.550781 225.250000 105.550781 C 226.250000 105.550781 227.265625 105.464844 228.300781 105.300781 L 233.351562 104.000000 C 233.714844 103.898438 234.035156 103.816406 234.300781 103.750000 C 234.898438 103.582031 235.515625 103.500000 236.148438 103.500000 C 237.417969 103.500000 238.832031 103.816406 240.398438 104.449219 C 242.433594 105.683594 243.816406 107.300781 244.550781 109.300781 L 246.199219 113.949219 C 247.066406 116.351562 247.000000 118.535156 246.000000 120.500000 C 244.535156 122.898438 242.617188 124.449219 240.250000 125.148438 L 235.000000 126.800781 C 234.000000 127.101562 233.035156 127.250000 232.101562 127.250000 C 230.566406 127.285156 229.050781 126.898438 227.550781 126.101562 C 225.449219 124.765625 223.882812 122.933594 222.851562 120.601562 L 221.550781 115.699219 C 220.714844 112.699219 218.851562 110.464844 215.949219 109.000000 C 213.882812 107.964844 211.785156 107.449219 209.648438 107.449219 C 208.515625 107.449219 207.351562 107.601562 206.148438 107.898438 L 200.601562 109.300781 C 199.601562 109.535156 198.601562 109.648438 197.601562 109.648438 C 196.101562 109.648438 194.617188 109.367188 193.148438 108.800781 C 191.015625 107.433594 189.765625 105.699219 189.398438 103.601562 L 188.601562 99.000000 C 188.234375 96.734375 188.785156 94.750000 190.250000 93.050781 C 191.882812 91.117188 193.949219 89.898438 196.449219 89.398438 L 201.699219 88.351562 C 205.101562 87.648438 207.667969 86.199219 209.398438 84.000000 C 211.101562 81.832031 211.617188 79.535156 210.949219 77.101562 L 209.949219 73.398438 C 209.515625 71.800781 209.933594 70.132812 211.199219 68.398438 C 212.566406 67.101562 214.265625 66.285156 216.300781 65.949219 L 220.699219 65.250000 C 221.265625 65.148438 221.851562 65.101562 222.449219 65.101562 "/>
  </g>
</svg>